:FULLY-SPECIFIED
:FORCE-ALL-JOINTS-BE-3DOF
:DEGREES
49
root 8.55213 16.0136 -29.7125 6.35947 -10.2195 -3.03528
lfemur -33.955 6.64175 -16.7892
ltibia 28.7946 0 0
lfoot -10.6271 9.39701 0
ltoes -7.50494 0 0
rfemur 7.41814 2.93483 22.3932
rtibia 29.8515 0 0
rfoot -0.514048 -5.6569 0
rtoes -17.0418 0 0
lowerback -6.63039 1.00889 0.528034
upperback -1.59793 1.15571 2.99471
thorax 2.0345 0.599038 2.90756
lowerneck -21.701 -4.29097 -11.7617
upperneck 17.0016 -5.2247 13.7592
head 9.6621 -1.70047 6.06323
lclavicle 2.55599e-014 5.38643e-015 0
lhumerus -41.2157 -6.378 89.5724
lradius 23.0628 0 0
lwrist -0.79988 0 0
lhand -4.02184 -21.5902 0
lfingers 7.12502 0 0
lthumb 21.7205 7.06548 0
rclavicle 2.55599e-014 5.38643e-015 0
rhumerus -43.4138 16.7842 -91.9362
rradius 48.334 0 0
rwrist -24.1854 0 0
rhand -29.7378 -27.9834 0
rfingers 7.12502 0 0
rthumb -3.06425 -57.9408 0
50
root 8.58715 16.0304 -29.559 6.28634 -10.3536 -2.78301
lfemur -33.5502 6.74952 -17.2749
ltibia 29.1282 0 0
lfoot -10.597 9.26324 0
ltoes -7.21039 0 0
rfemur 6.75937 2.69975 21.8912
rtibia 31.6074 0 0
rfoot 0.134167 -5.95416 0
rtoes -16.0863 0 0
lowerback -6.53248 0.976444 0.322793
upperback -1.6342 1.13165 2.96082
thorax 1.93989 0.586735 2.98298
lowerneck -21.7686 -4.27702 -11.7576
upperneck 17.0451 -5.18951 13.6977
head 9.68179 -1.68792 6.04693
lclavicle 2.54132e-014 5.00169e-015 0
lhumerus -41.1151 -6.26728 89.4907
lradius 22.8883 0 0
lwrist -1.03149 0 0
lhand -3.57713 -21.2925 0
lfingers 7.12502 0 0
lthumb 22.1476 7.31499 0
rclavicle 2.54132e-014 5.00169e-015 0
rhumerus -43.3792 16.5487 -91.8791
rradius 47.5893 0 0
rwrist -23.8359 0 0
rhand -29.7127 -27.8135 0
rfingers 7.12502 0 0
rthumb -3.04 -57.7713 0
51
root 8.62218 16.0471 -29.4054 6.21322 -10.4877 -2.53075
lfemur -33.1454 6.85728 -17.7606
ltibia 29.4619 0 0
lfoot -10.567 9.12946 0
ltoes -6.91585 0 0
rfemur 6.1006 2.46468 21.3893
rtibia 33.3634 0 0
rfoot 0.782382 -6.25142 0
rtoes -15.1308 0 0
lowerback -6.43456 0.943996 0.117552
upperback -1.67047 1.10759 2.92694
thorax 1.84528 0.574433 3.05841
lowerneck -21.8361 -4.26308 -11.7534
upperneck 17.0885 -5.15432 13.6362
head 9.70148 -1.67537 6.03063
lclavicle 2.52665e-014 4.61694e-015 0
lhumerus -41.0146 -6.15655 89.4091
lradius 22.7138 0 0
lwrist -1.26311 0 0
lhand -3.13242 -20.9947 0
lfingers 7.12502 0 0
lthumb 22.5747 7.5645 0
rclavicle 2.52665e-014 4.61694e-015 0
rhumerus -43.3445 16.3131 -91.822
rradius 46.8446 0 0
rwrist -23.4865 0 0
rhand -29.6876 -27.6437 0
rfingers 7.12502 0 0
rthumb -3.01574 -57.6017 0
52
root 8.6572 16.0638 -29.2519 6.14009 -10.6219 -2.27848
lfemur -32.7406 6.96505 -18.2462
ltibia 29.7956 0 0
lfoot -10.5369 8.99568 0
ltoes -6.6213 0 0
rfemur 5.44182 2.2296 20.8873
rtibia 35.1194 0 0
rfoot 1.4306 -6.54867 0
rtoes -14.1753 0 0
lowerback -6.33665 0.911548 -0.0876894
upperback -1.70674 1.08353 2.89305
thorax 1.75067 0.562131 3.13383
lowerneck -21.9036 -4.24913 -11.7492
upperneck 17.132 -5.11914 13.5746
head 9.72117 -1.66282 6.01433
lclavicle 2.51198e-014 4.2322e-015 0
lhumerus -40.914 -6.04582 89.3275
lradius 22.5393 0 0
lwrist -1.49472 0 0
lhand -2.68771 -20.6969 0
lfingers 7.12502 0 0
lthumb 23.0018 7.814 0
rclavicle 2.51198e-014 4.2322e-015 0
rhumerus -43.3098 16.0776 -91.7649
rradius 46.0999 0 0
rwrist -23.137 0 0
rhand -29.6624 -27.4738 0
rfingers 7.12502 0 0
rthumb -2.99149 -57.4322 0
53
root 8.69223 16.0805 -29.0983 6.06696 -10.756 -2.02621
lfemur -32.3358 7.07282 -18.7319
ltibia 30.1292 0 0
lfoot -10.5068 8.86191 0
ltoes -6.32676 0 0
rfemur 4.78305 1.99453 20.3853
rtibia 36.8753 0 0
rfoot 2.07881 -6.84593 0
rtoes -13.2197 0 0
lowerback -6.23873 0.879101 -0.29293
upperback -1.74301 1.05946 2.85916
thorax 1.65606 0.549828 3.20925
lowerneck -21.9712 -4.23518 -11.7451
upperneck 17.1755 -5.08395 13.5131
head 9.74086 -1.65027 5.99803
lclavicle 2.49731e-014 3.84745e-015 0
lhumerus -40.8134 -5.9351 89.2458
lradius 22.3648 0 0
lwrist -1.72633 0 0
lhand -2.243 -20.3991 0
lfingers 7.12502 0 0
lthumb 23.4289 8.06351 0
rclavicle 2.49731e-014 3.84745e-015 0
rhumerus -43.2752 15.8421 -91.7078
rradius 45.3552 0 0
rwrist -22.7875 0 0
rhand -29.6373 -27.3039 0
rfingers 7.12502 0 0
rthumb -2.96724 -57.2627 0
54
root 8.72725 16.0973 -28.9448 5.99383 -10.8901 -1.77394
lfemur -31.9309 7.18058 -19.2176
ltibia 30.4629 0 0
lfoot -10.4767 8.72813 0
ltoes -6.03221 0 0
rfemur 4.12427 1.75945 19.8834
rtibia 38.6313 0 0
rfoot 2.72703 -7.14318 0
rtoes -12.2642 0 0
lowerback -6.14082 0.846653 -0.498171
upperback -1.77928 1.0354 2.82528
thorax 1.56145 0.537526 3.28467
lowerneck -22.0387 -4.22123 -11.7409
upperneck 17.2189 -5.04877 13.4515
head 9.76055 -1.63773 5.98173
lclavicle 2.48265e-014 3.46271e-015 0
lhumerus -40.7128 -5.82437 89.1642
lradius 22.1903 0 0
lwrist -1.95795 0 0
lhand -1.79829 -20.1014 0
lfingers 7.12502 0 0
lthumb 23.856 8.31302 0
rclavicle 2.48265e-014 3.46271e-015 0
rhumerus -43.2405 15.6065 -91.6507
rradius 44.6105 0 0
rwrist -22.438 0 0
rhand -29.6122 -27.134 0
rfingers 7.12502 0 0
rthumb -2.94299 -57.0932 0
55
root 8.76228 16.114 -28.7912 5.9207 -11.0242 -1.52167
lfemur -31.5261 7.28835 -19.7032
ltibia 30.7965 0 0
lfoot -10.4467 8.59436 0
ltoes -5.73767 0 0
rfemur 3.4655 1.52438 19.3814
rtibia 40.3873 0 0
rfoot 3.37524 -7.44044 0
rtoes -11.3087 0 0
lowerback -6.0429 0.814206 -0.703412
upperback -1.81554 1.01134 2.79139
thorax 1.46684 0.525223 3.36009
lowerneck -22.1062 -4.20729 -11.7367
upperneck 17.2624 -5.01358 13.39
head 9.78024 -1.62518 5.96543
lclavicle 2.46798e-014 3.07796e-015 0
lhumerus -40.6122 -5.71365 89.0826
lradius 22.0158 0 0
lwrist -2.18956 0 0
lhand -1.35358 -19.8036 0
lfingers 7.12502 0 0
lthumb 24.2831 8.56253 0
rclavicle 2.46798e-014 3.07796e-015 0
rhumerus -43.2059 15.371 -91.5936
rradius 43.8658 0 0
rwrist -22.0886 0 0
rhand -29.5871 -26.9641 0
rfingers 7.12502 0 0
rthumb -2.91873 -56.9236 0
56
root 8.7973 16.1307 -28.6377 5.84758 -11.1583 -1.2694
lfemur -31.1213 7.39611 -20.1889
ltibia 31.1302 0 0
lfoot -10.4166 8.46058 0
ltoes -5.44312 0 0
rfemur 2.80673 1.2893 18.8795
rtibia 42.1432 0 0
rfoot 4.02346 -7.7377 0
rtoes -10.3532 0 0
lowerback -5.94499 0.781758 -0.908653
upperback -1.85181 0.987279 2.75751
thorax 1.37223 0.512921 3.43552
lowerneck -22.1738 -4.19334 -11.7326
upperneck 17.3058 -4.97839 13.3285
head 9.79994 -1.61263 5.94912
lclavicle 2.45331e-014 2.69322e-015 0
lhumerus -40.5117 -5.60292 89.0009
lradius 21.8413 0 0
lwrist -2.42118 0 0
lhand -0.908875 -19.5058 0
lfingers 7.12502 0 0
lthumb 24.7101 8.81204 0
rclavicle 2.45331e-014 2.69322e-015 0
rhumerus -43.1712 15.1354 -91.5365
rradius 43.1212 0 0
rwrist -21.7391 0 0
rhand -29.562 -26.7943 0
rfingers 7.12502 0 0
rthumb -2.89448 -56.7541 0
57
root 8.83233 16.1474 -28.4841 5.77445 -11.2924 -1.01713
lfemur -30.7165 7.50388 -20.6746
ltibia 31.4639 0 0
lfoot -10.3865 8.3268 0
ltoes -5.14858 0 0
rfemur 2.14795 1.05423 18.3775
rtibia 43.8992 0 0
rfoot 4.67167 -8.03495 0
rtoes -9.39771 0 0
lowerback -5.84707 0.74931 -1.11389
upperback -1.88808 0.963217 2.72362
thorax 1.27762 0.500619 3.51094
lowerneck -22.2413 -4.17939 -11.7284
upperneck 17.3493 -4.94321 13.2669
head 9.81963 -1.60008 5.93282
lclavicle 2.43864e-014 2.30847e-015 0
lhumerus -40.4111 -5.49219 88.9193
lradius 21.6668 0 0
lwrist -2.65279 0 0
lhand -0.464166 -19.208 0
lfingers 7.12502 0 0
lthumb 25.1372 9.06155 0
rclavicle 2.43864e-014 2.30847e-015 0
rhumerus -43.1365 14.8999 -91.4794
rradius 42.3765 0 0
rwrist -21.3896 0 0
rhand -29.5369 -26.6244 0
rfingers 7.12502 0 0
rthumb -2.87023 -56.5846 0
58
root 8.86735 16.1642 -28.3306 5.70132 -11.4265 -0.764864
lfemur -30.3117 7.61164 -21.1603
ltibia 31.7975 0 0
lfoot -10.3565 8.19303 0
ltoes -4.85403 0 0
rfemur 1.48918 0.819155 17.8756
rtibia 45.6552 0 0
rfoot 5.31989 -8.33221 0
rtoes -8.44221 0 0
lowerback -5.74916 0.716863 -1.31914
upperback -1.92435 0.939156 2.68973
thorax 1.18302 0.488316 3.58636
lowerneck -22.3088 -4.16545 -11.7242
upperneck 17.3927 -4.90802 13.2054
head 9.83932 -1.58753 5.91652
lclavicle 2.42397e-014 1.92373e-015 0
lhumerus -40.3105 -5.38147 88.8377
lradius 21.4923 0 0
lwrist -2.8844 0 0
lhand -0.0194568 -18.9103 0
lfingers 7.12502 0 0
lthumb 25.5643 9.31106 0
rclavicle 2.42397e-014 1.92373e-015 0
rhumerus -43.1019 14.6644 -91.4222
rradius 41.6318 0 0
rwrist -21.0402 0 0
rhand -29.5118 -26.4545 0
rfingers 7.12502 0 0
rthumb -2.84597 -56.415 0
